<svg width="100" height="100" viewBox="0 0 100 100" fill="none" xmlns="http://www.w3.org/2000/svg">
  <circle cx="50" cy="50" r="48" fill="#E5E7EB" stroke="#9CA3AF" stroke-width="4"/>
  <path d="M50 70C53.3137 70 56 67.3137 56 64C56 60.6863 53.3137 58 50 58C46.6863 58 44 60.6863 44 64C44 67.3137 46.6863 70 50 70Z" fill="#9CA3AF"/>
  <path d="M50 25C41.7157 25 35 31.7157 35 40C35 42.7614 37.2386 45 40 45C42.7614 45 45 42.7614 45 40C45 37.2386 47.2386 35 50 35C52.7614 35 55 37.2386 55 40C55 42.7614 52.7614 45 50 45C47.2386 45 45 47.2386 45 50V55C45 57.7614 47.2386 60 50 60C52.7614 60 55 57.7614 55 55V53.5C61.3304 51.2426 65.8383 45.5622 65 39C63.9468 30.7148 57.4917 25 50 25Z" fill="#9CA3AF"/>
</svg>
